<svg xmlns="http://www.w3.org/2000/svg" viewBox="0 0 56.218 57.235">
  <defs>
    <style>
      .cls-1, .cls-2 {
        fill: none;
      }

      .cls-2 {
        stroke: #3e70d5;
        stroke-width: 4px;
      }

      .cls-3, .cls-4 {
        stroke: none;
      }

      .cls-4 {
        fill: #3e70d5;
      }
    </style>
  </defs>
  <g id="design_icon" data-name="design icon" transform="translate(2079.016 -3561.38) rotate(43)">
    <g id="Path_3" data-name="Path 3" class="cls-1" transform="translate(943.226 3990)">
      <path class="cls-3" d="M5.841,0c3.226,0,5.841,3.3,5.841,7.368v35.14c0,4.069-11.683,4.069-11.683,0V7.368C0,3.3,2.615,0,5.841,0Z"/>
      <path class="cls-4" d="M 5.841360092163086 3.999996185302734 C 5.10830020904541 3.999996185302734 4 5.343353271484375 4 7.368144989013672 L 4 41.34214401245117 C 4.428858280181885 41.45719909667969 5.056184768676758 41.56051635742188 5.841360092163086 41.56051635742188 C 6.626535415649414 41.56051635742188 7.253861904144287 41.45719909667969 7.682720184326172 41.34214401245117 L 7.682720184326172 7.368144989013672 C 7.682720184326172 5.343353271484375 6.574419975280762 3.999996185302734 5.841360092163086 3.999996185302734 M 5.841360092163086 -3.814697265625e-06 C 9.067449569702148 -3.814697265625e-06 11.68272018432617 3.298835754394531 11.68272018432617 7.368144989013672 L 11.68272018432617 42.50853729248047 C 11.68272018432617 44.54319000244141 8.762040138244629 45.56051635742188 5.841360092163086 45.56051635742188 C 2.920680046081543 45.56051635742188 0 44.54319000244141 0 42.50853729248047 L 0 7.368144989013672 C 0 3.298835754394531 2.615269660949707 -3.814697265625e-06 5.841360092163086 -3.814697265625e-06 Z"/>
    </g>
    <path id="Path_4" data-name="Path 4" class="cls-2" d="M-1045.181,4065.742s-4.7,4.576-3.776,8.041,4.874,6.741,4.262,12.353c.072,0,15.224-7.3,7.722-20.913" transform="translate(1990 -32.885)"/>
  </g>
</svg>
