<svg xmlns="http://www.w3.org/2000/svg" viewBox="0 0 29.868 42.672">
  <defs>
    <style>
      .cls-1 {
        fill: #3e70d5;
      }
    </style>
  </defs>
  <path id="light-bulb" class="cls-1" d="M13.732,40.9a10.316,10.316,0,0,0,6,1.767,10.322,10.322,0,0,0,6-1.767L25.7,36.271H13.768L13.732,40.9ZM25.49,34.137c0-9.3,9.879-12.478,9.139-21.738C34.163,6.557,30.2,0,19.735,0S5.308,6.557,4.84,12.4c-.74,9.257,9.14,12.439,9.14,21.735H25.488ZM9.067,12.8c.441-5.543,4.509-8.535,10.668-8.535s9.929,2.926,10.372,8.468c.241,3.038-1.5,5.063-3.859,8.377A25.036,25.036,0,0,0,21.87,29.87H17.6a25.03,25.03,0,0,0-4.381-8.761c-2.354-3.311-4.4-5.27-4.154-8.308Z" transform="translate(-4.8 -0.003)"/>
</svg>
